<svg xmlns="http://www.w3.org/2000/svg" width="512" height="512" viewBox="0 0 512 512" fill="none">
  <defs>
    <linearGradient id="grad" x1="96" y1="96" x2="416" y2="416" gradientUnits="userSpaceOnUse">
      <stop offset="0%" stop-color="#8B5CF6"/>
      <stop offset="100%" stop-color="#EC4899"/>
    </linearGradient>
    <linearGradient id="playGrad" x1="180" y1="150" x2="350" y2="340" gradientUnits="userSpaceOnUse">
      <stop offset="0%" stop-color="#FFFFFF"/>
      <stop offset="100%" stop-color="#E9D5FF"/>
    </linearGradient>
    <filter id="shadow" x="-20%" y="-20%" width="140%" height="140%">
      <feDropShadow dx="0" dy="10" stdDeviation="12" flood-color="#7C3AED" flood-opacity="0.28"/>
    </filter>
  </defs>

  <rect width="512" height="512" rx="112" fill="#0F172A"/>

  <!-- Gear -->
  <g filter="url(#shadow)">
    <path fill="url(#grad)" d="M279.26 69.53c-14.97-1.7-30.33-1.7-45.3 0l-10.49 36.13a152.89 152.89 0 0 0-28.84 11.94l-34.62-14.2a188.08 188.08 0 0 0-32.03 32.03l14.2 34.62a152.9 152.9 0 0 0-11.94 28.84l-36.13 10.49a186.34 186.34 0 0 0 0 45.3l36.13 10.49c2.85 10.06 6.84 19.7 11.94 28.84l-14.2 34.62a188.06 188.06 0 0 0 32.03 32.03l34.62-14.2c9.14 5.1 18.78 9.09 28.84 11.94l10.49 36.13c14.97 1.7 30.33 1.7 45.3 0l10.49-36.13a152.9 152.9 0 0 0 28.84-11.94l34.62 14.2a188.06 188.06 0 0 0 32.03-32.03l-14.2-34.62a152.9 152.9 0 0 0 11.94-28.84l36.13-10.49c1.7-14.97 1.7-30.33 0-45.3l-36.13-10.49a152.9 152.9 0 0 0-11.94-28.84l14.2-34.62a188.08 188.08 0 0 0-32.03-32.03l-34.62 14.2a152.89 152.89 0 0 0-28.84-11.94L279.26 69.53Z"/>
    <circle cx="256" cy="232" r="108" fill="#111827"/>
    <circle cx="256" cy="232" r="96" fill="#1F2937" stroke="#F5F3FF" stroke-opacity="0.18" stroke-width="8"/>
  </g>

  <!-- Play badge -->
  <g filter="url(#shadow)">
    <rect x="152" y="136" width="208" height="192" rx="52" fill="url(#grad)" stroke="#FDF4FF" stroke-width="10"/>
    <path d="M222 187.27c0-10.38 11.45-16.67 20.2-11.1l85.11 54.18c8.08 5.14 8.08 16.95 0 22.09l-85.11 54.18c-8.75 5.57-20.2-.72-20.2-11.1V187.27Z" fill="url(#playGrad)"/>
  </g>
</svg>
